<?xml version="1.0" standalone="no"?>
<!DOCTYPE svg PUBLIC "-//W3C//DTD SVG 20010904//EN"
 "http://www.w3.org/TR/2001/REC-SVG-20010904/DTD/svg10.dtd">
<svg version="1.0" xmlns="http://www.w3.org/2000/svg"
 width="1280.000000pt" height="640.000000pt" viewBox="0 0 1280.000000 640.000000"
 preserveAspectRatio="xMidYMid meet">
<metadata>
Created by potrace 1.15, written by Peter Selinger 2001-2017
</metadata>
<g transform="translate(0.000000,640.000000) scale(0.100000,-0.100000)"
fill="#000000" stroke="none">
<path d="M9796 5713 c-4 -16 -16 -58 -27 -95 l-19 -66 -86 34 c-48 19 -88 34
-90 32 -1 -2 20 -36 47 -76 28 -39 48 -76 44 -81 -3 -6 -40 -29 -83 -53 l-77
-43 98 -9 c110 -10 103 0 82 -116 -7 -41 -12 -76 -10 -78 3 -3 79 75 112 117
l19 23 63 -71 c35 -40 66 -70 68 -68 3 4 -10 103 -22 164 -5 20 0 21 92 28
107 8 108 11 13 60 -89 46 -88 41 -30 124 29 40 50 75 47 77 -3 3 -37 -8 -77
-25 -83 -36 -97 -37 -104 -13 -34 119 -47 162 -50 162 -2 0 -7 -12 -10 -27z"/>
<path d="M12261 5460 c-8 -25 -15 -31 -28 -25 -10 4 -27 10 -37 13 -19 5 -18
4 2 -25 l22 -31 -33 -21 -32 -21 39 0 39 0 -7 -42 -6 -43 25 30 24 29 30 -28
29 -28 -5 41 -6 41 39 0 39 0 -33 20 c-33 20 -34 21 -17 46 20 30 15 40 -13
25 -29 -16 -42 -14 -42 7 0 9 -4 23 -9 30 -6 10 -11 5 -20 -18z"/>
<path d="M10604 5375 c-16 -62 -9 -140 18 -186 57 -97 169 -146 538 -235 102
-25 189 -50 195 -55 18 -19 -23 -37 -113 -49 -100 -14 -136 -26 -127 -40 13
-21 129 -72 194 -85 87 -19 94 -29 89 -135 -7 -143 -54 -220 -164 -271 -80
-37 -122 -47 -527 -129 -364 -74 -429 -92 -496 -140 -22 -17 -45 -30 -50 -30
-11 0 -21 36 -21 82 0 42 -8 68 -21 68 -18 0 -71 -125 -76 -180 -7 -68 4 -92
81 -179 95 -105 111 -136 111 -205 -1 -75 -27 -121 -111 -192 -130 -112 -127
-109 -126 -144 2 -61 172 -279 246 -314 41 -19 86 -21 86 -3 0 7 -25 37 -55
67 -59 58 -91 123 -81 164 5 22 21 30 122 62 65 21 137 52 163 69 96 66 141
169 141 321 0 64 4 86 17 100 18 17 14 18 215 -6 47 -5 169 -9 270 -8 211 3
251 -4 383 -67 117 -54 130 -70 130 -149 0 -53 -7 -75 -48 -160 -26 -54 -45
-101 -42 -104 21 -21 164 124 214 218 46 85 53 116 37 154 -14 34 -80 99 -145
141 l-41 28 43 27 c103 65 148 140 148 245 0 52 -11 96 -57 232 -52 152 -58
176 -58 255 -1 113 13 133 114 168 85 30 154 85 181 144 10 23 15 44 11 47 -4
4 -44 12 -89 18 -45 7 -121 25 -169 41 -101 34 -117 36 -189 14 -101 -29 -175
10 -245 128 -51 88 -73 113 -89 104 -18 -11 -13 -30 24 -102 43 -83 44 -97 8
-88 -111 27 -234 139 -304 276 -24 49 -48 86 -54 84 -15 -5 -9 -98 9 -133 9
-18 38 -57 66 -89 74 -84 67 -102 -31 -84 -183 33 -274 112 -294 255 -10 70
-21 88 -31 50z"/>
<path d="M6795 5160 c-8 -35 -7 -35 -45 -15 -34 18 -38 10 -11 -25 l19 -24
-31 -21 -32 -20 38 -3 c38 -3 38 -3 31 -40 l-7 -37 27 24 26 24 26 -24 27 -24
-6 38 c-6 37 -5 37 29 37 40 0 44 12 9 28 -29 13 -31 21 -10 48 22 30 18 36
-15 19 -38 -20 -37 -20 -45 15 -4 17 -10 30 -15 30 -5 0 -11 -13 -15 -30z"/>
<path d="M7666 5095 c-10 -36 -20 -65 -22 -65 -3 0 -32 11 -66 25 -34 14 -63
25 -65 25 -2 0 14 -27 36 -59 45 -65 47 -60 -34 -107 l-50 -29 74 -3 73 -3 -7
-47 c-3 -26 -9 -58 -12 -72 -5 -22 1 -18 46 25 l52 50 46 -48 c25 -27 47 -47
48 -45 2 2 -1 23 -5 48 -18 91 -18 90 55 90 36 0 65 4 65 9 0 5 -25 21 -55 37
-30 16 -55 32 -55 35 0 3 18 31 41 62 22 32 38 57 36 57 -2 0 -31 -11 -65 -25
-34 -14 -64 -25 -67 -25 -2 0 -12 26 -21 58 -9 31 -19 60 -23 64 -3 4 -15 -22
-25 -57z"/>
<path d="M8435 5132 c-8 -35 -16 -36 -71 -15 -14 5 -13 0 6 -25 13 -18 22 -33
19 -36 -2 -2 -17 -11 -34 -19 -30 -16 -30 -16 -5 -17 42 -1 54 -14 46 -51 l-6
-33 28 27 28 27 27 -28 27 -27 -6 34 c-8 37 4 50 46 51 25 1 25 1 -5 17 -16 8
-32 17 -34 19 -2 1 7 17 19 35 l23 31 -24 -7 c-13 -4 -29 -10 -36 -12 -7 -3
-19 10 -27 29 l-14 33 -7 -33z"/>
<path d="M2368 5074 c-5 -4 -8 -16 -8 -26 0 -24 -23 -33 -50 -18 -31 16 -34 8
-9 -24 12 -15 20 -28 18 -30 -2 -2 -17 -10 -34 -19 l-30 -15 38 -7 c38 -7 39
-8 32 -44 l-7 -36 29 27 29 28 26 -27 27 -26 -8 36 c-8 34 -8 35 26 42 l35 6
-23 16 c-13 9 -26 18 -28 19 -2 2 4 15 13 28 22 34 20 37 -10 26 -37 -14 -40
-13 -50 21 -5 17 -12 27 -16 23z"/>
<path d="M8684 4985 c-5 -11 -9 -52 -9 -91 0 -60 4 -77 27 -111 57 -86 174
-137 487 -214 113 -27 216 -54 229 -59 51 -22 10 -43 -123 -61 -91 -13 -111
-21 -101 -38 14 -23 129 -72 194 -84 76 -14 92 -32 92 -104 0 -96 -34 -194
-86 -247 -66 -65 -143 -89 -579 -176 -388 -78 -452 -96 -525 -146 -28 -19 -54
-32 -59 -30 -5 3 -11 37 -15 76 -4 38 -11 72 -17 75 -11 7 -76 -124 -85 -170
-10 -57 12 -106 86 -190 104 -117 126 -167 109 -243 -14 -62 -57 -119 -143
-186 -81 -63 -102 -92 -92 -129 10 -43 88 -150 166 -229 59 -59 84 -78 114
-83 63 -12 66 7 9 62 -78 75 -117 172 -80 200 6 6 57 25 112 42 120 39 172 67
219 122 59 69 70 102 76 231 7 159 3 156 162 138 68 -7 222 -14 343 -15 245
-2 268 -6 407 -76 94 -47 113 -73 112 -146 -1 -42 -12 -75 -48 -149 -63 -130
-60 -141 16 -78 97 81 198 238 198 308 0 42 -32 83 -117 147 -32 23 -61 46
-66 49 -4 4 23 27 61 53 76 52 123 110 143 175 18 62 1 134 -67 277 -79 167
-98 293 -56 372 15 27 34 38 111 62 76 23 116 53 152 109 49 78 43 86 -72 95
-30 3 -97 20 -148 37 -73 25 -101 31 -139 26 -213 -27 -216 -25 -349 189 -10
16 -27 31 -37 33 -16 4 -18 -1 -13 -30 3 -19 19 -57 36 -86 17 -29 31 -57 31
-62 0 -19 -47 -10 -106 20 -83 41 -164 127 -221 235 -57 105 -73 116 -73 51 0
-60 19 -104 67 -158 45 -49 73 -88 73 -102 0 -15 -132 1 -195 24 -39 15 -76
39 -106 69 -46 46 -62 80 -87 196 -8 34 -10 37 -18 20z"/>
<path d="M6027 4920 l-17 -60 -52 21 c-29 11 -56 23 -60 25 -17 10 -7 -10 27
-57 l35 -49 -23 -13 c-12 -8 -37 -23 -56 -34 l-34 -21 65 -7 65 -7 -8 -46
c-14 -86 -12 -87 36 -35 l45 48 46 -50 46 -50 -7 40 c-3 22 -8 52 -11 67 -5
26 -4 26 61 33 l67 8 -48 28 c-27 16 -53 30 -59 32 -5 2 7 27 28 55 20 29 37
54 37 56 0 3 -26 -6 -57 -19 -32 -13 -61 -21 -64 -19 -4 2 -12 26 -19 54 -7
28 -15 52 -19 55 -5 2 -15 -22 -24 -55z"/>
<path d="M5093 4850 c-10 -36 -16 -38 -63 -24 -24 7 -24 6 -9 -12 30 -35 29
-42 -4 -63 l-32 -21 39 0 39 0 -7 -42 -6 -43 25 30 24 29 24 -22 c31 -29 34
-28 29 13 -4 35 -4 35 34 35 l39 0 -33 20 c-33 20 -34 21 -17 46 20 30 15 40
-13 25 -32 -17 -39 -13 -49 27 l-10 37 -10 -35z"/>
<path d="M1387 4761 c-15 -50 -32 -91 -38 -91 -6 0 -44 14 -85 31 -41 17 -77
29 -79 27 -3 -2 18 -36 45 -75 28 -39 50 -74 50 -77 0 -3 -37 -27 -82 -53
l-83 -48 94 -8 c52 -4 97 -9 98 -11 4 -3 -8 -83 -23 -166 -3 -20 10 -10 64 48
l68 73 63 -71 c35 -39 65 -69 67 -68 2 2 -3 44 -11 93 -8 49 -13 90 -11 92 1
2 45 6 96 10 103 7 103 9 10 58 -91 47 -90 42 -31 125 28 40 49 75 47 77 -2 2
-38 -10 -80 -27 -42 -16 -81 -30 -86 -30 -5 0 -19 33 -30 73 -34 119 -33 119
-63 18z"/>
<path d="M4041 4626 c-6 -25 -15 -56 -21 -70 l-9 -25 -71 29 c-38 16 -70 27
-70 24 0 -3 18 -31 40 -61 22 -31 40 -59 40 -63 0 -4 -28 -22 -61 -40 -72 -38
-66 -50 25 -50 l59 0 -7 -57 c-4 -31 -9 -69 -12 -83 -5 -20 5 -14 50 35 l56
60 56 -60 c45 -49 55 -55 50 -35 -3 14 -8 52 -12 83 l-7 57 59 0 c91 0 97 12
25 50 -33 18 -61 36 -61 40 0 4 18 32 40 63 22 30 40 58 40 61 0 3 -32 -8 -70
-24 l-71 -29 -9 25 c-6 14 -15 45 -21 70 -6 24 -15 44 -19 44 -4 0 -13 -20
-19 -44z"/>
<path d="M3075 4595 c-9 -33 -21 -64 -25 -68 -4 -5 -35 3 -69 17 -33 13 -61
22 -61 20 0 -3 16 -28 35 -57 19 -28 35 -55 35 -58 0 -3 -28 -21 -62 -40 l-63
-34 74 -3 73 -3 -6 -60 c-4 -33 -9 -68 -12 -77 -3 -9 17 8 45 38 l50 55 52
-50 51 -50 -7 50 c-13 98 -18 89 60 95 l70 5 -50 29 c-79 46 -77 44 -51 80 13
17 31 44 41 59 l18 29 -39 -17 c-59 -26 -95 -38 -98 -34 -2 2 -12 33 -23 69
l-20 65 -18 -60z"/>
<path d="M6826 4597 c-10 -40 -6 -137 8 -170 42 -101 201 -175 541 -252 147
-33 215 -54 215 -66 0 -14 -44 -28 -124 -39 -106 -15 -126 -20 -126 -34 0 -21
113 -76 186 -91 90 -19 98 -29 97 -115 -2 -137 -55 -236 -154 -285 -70 -36
-154 -57 -541 -135 -364 -73 -430 -92 -497 -140 -22 -17 -45 -30 -50 -30 -10
0 -21 48 -21 90 0 34 -9 60 -20 60 -16 0 -73 -131 -78 -178 -6 -64 12 -102 93
-192 105 -116 127 -188 86 -275 -23 -48 -49 -77 -140 -150 -108 -88 -109 -107
-7 -243 79 -105 141 -167 182 -182 34 -13 74 -13 74 1 0 6 -26 39 -58 74 -72
76 -98 145 -66 174 10 10 60 31 109 46 156 47 224 96 271 191 22 46 28 73 33
169 8 152 9 153 133 135 53 -8 192 -14 324 -15 142 -2 252 -7 285 -15 80 -18
231 -92 258 -126 34 -43 26 -126 -23 -223 -21 -40 -41 -84 -46 -97 -30 -77
114 46 191 165 53 79 73 136 63 175 -7 28 -88 108 -151 150 l-43 28 59 38 c69
44 116 108 131 176 14 63 0 144 -50 279 -55 150 -65 193 -65 277 0 102 16 124
116 158 41 14 89 36 106 49 38 29 82 92 86 123 2 20 -6 23 -98 39 -55 9 -133
29 -174 43 -86 30 -108 31 -176 11 -96 -29 -173 10 -236 118 -44 75 -77 117
-91 117 -19 0 -5 -64 27 -124 20 -35 32 -67 27 -70 -28 -17 -134 39 -211 109
-46 43 -71 79 -111 155 -28 55 -55 100 -59 100 -14 0 -22 -45 -15 -82 10 -47
26 -75 84 -143 28 -33 49 -67 47 -75 -7 -36 -196 8 -269 63 -52 39 -94 117
-104 193 -7 59 -18 76 -28 41z"/>
<path d="M12355 4545 c-9 -36 -18 -65 -19 -65 -2 0 -30 11 -64 25 -34 14 -64
25 -68 25 -3 0 10 -21 29 -47 18 -27 37 -53 41 -60 4 -7 -16 -24 -55 -46 -54
-31 -58 -35 -37 -41 13 -3 45 -6 71 -6 l49 0 -7 -42 c-3 -24 -8 -56 -11 -73
-5 -29 -4 -29 44 22 l49 51 53 -51 c34 -34 50 -45 47 -32 -3 11 -9 44 -12 73
l-7 52 54 0 c83 0 88 12 24 49 -31 17 -56 33 -56 36 0 3 16 28 36 55 20 28 34
53 32 56 -3 2 -31 -7 -63 -21 -66 -30 -66 -30 -85 51 -7 30 -16 54 -20 54 -4
0 -15 -29 -25 -65z"/>
<path d="M11085 4489 c-126 -18 -525 -92 -885 -163 -394 -78 -400 -80 -400
-133 0 -19 4 -22 23 -18 12 3 312 63 667 135 618 123 772 159 785 180 7 12
-104 11 -190 -1z"/>
<path d="M5670 4343 c0 -36 -16 -48 -46 -35 -33 16 -43 8 -21 -16 24 -26 21
-37 -10 -52 -28 -13 -28 -14 18 -24 22 -5 25 -9 21 -43 l-5 -37 27 29 26 30
26 -30 26 -30 -5 37 c-6 39 3 48 46 48 19 0 18 3 -10 21 l-33 21 20 25 c24 30
20 39 -8 24 -31 -17 -39 -14 -51 19 -11 33 -21 39 -21 13z"/>
<path d="M4946 4208 c-13 -49 -6 -139 13 -176 53 -103 161 -152 540 -246 113
-28 206 -56 208 -62 6 -17 -41 -33 -136 -45 -105 -13 -121 -20 -101 -44 28
-33 93 -59 232 -89 40 -9 55 -64 40 -154 -14 -86 -33 -131 -74 -177 -63 -73
-137 -96 -578 -185 -393 -79 -458 -97 -530 -145 -29 -19 -56 -35 -60 -35 -5 0
-11 26 -15 58 -3 31 -8 68 -11 82 -6 25 -6 25 -21 5 -30 -39 -66 -130 -71
-175 -5 -59 11 -92 94 -188 78 -88 104 -138 104 -194 -1 -67 -30 -118 -110
-189 -125 -110 -130 -116 -130 -146 0 -36 42 -103 127 -206 68 -81 132 -127
176 -127 38 0 34 19 -14 65 -67 65 -112 160 -91 193 5 7 61 30 126 51 131 44
183 75 232 140 45 58 64 126 64 225 0 102 6 125 36 132 13 3 86 -1 161 -10 87
-10 208 -15 328 -14 174 2 196 0 260 -21 84 -28 172 -71 202 -100 46 -43 44
-133 -5 -229 -54 -106 -63 -132 -47 -132 25 0 137 114 187 189 54 83 74 137
64 176 -8 32 -78 102 -146 146 l-49 31 60 40 c100 67 148 161 134 263 -3 27
-30 122 -60 210 -59 174 -73 257 -56 321 14 53 43 78 115 99 72 20 118 50 156
102 25 33 49 93 39 93 -60 1 -186 26 -257 50 -71 25 -102 31 -135 26 -198 -28
-226 -16 -320 144 -73 125 -112 91 -42 -37 19 -35 35 -66 35 -68 0 -14 -63 -2
-109 21 -83 42 -169 134 -224 242 -26 50 -52 92 -57 92 -13 0 -13 -91 -1 -122
5 -13 34 -55 65 -93 31 -38 55 -76 54 -84 -7 -34 -173 3 -260 58 -58 37 -95
99 -109 182 -13 72 -23 91 -33 57z"/>
<path d="M4570 4175 c-6 -16 -14 -42 -17 -58 -3 -15 -9 -30 -13 -32 -4 -3 -33
6 -64 20 -31 14 -56 22 -56 19 0 -4 16 -29 36 -56 19 -28 34 -51 32 -53 -2 -1
-27 -16 -56 -32 l-53 -30 32 -7 c17 -3 47 -6 66 -6 32 0 34 -2 29 -27 -3 -16
-8 -46 -11 -68 l-6 -40 46 50 46 50 45 -50 46 -50 -7 50 c-3 28 -8 58 -11 68
-4 14 1 17 29 17 19 0 49 3 67 6 l32 7 -56 32 -55 31 34 52 c19 28 35 53 35
56 0 3 -25 -6 -56 -20 -31 -14 -59 -23 -61 -20 -3 2 -13 31 -23 63 l-18 58
-12 -30z"/>
<path d="M9050 4096 c-195 -40 -514 -105 -709 -145 -218 -44 -361 -77 -372
-87 -21 -19 -31 -64 -14 -64 7 0 198 38 426 84 228 46 554 112 724 146 171 34
312 64 313 65 2 2 7 20 12 39 7 30 5 36 -9 35 -9 0 -176 -34 -371 -73z"/>
<path d="M2391 4026 c-6 -25 -15 -56 -20 -70 l-10 -25 -60 25 c-33 13 -63 24
-66 24 -3 0 12 -26 34 -59 l40 -59 -62 -33 -62 -34 73 -9 c50 -6 72 -13 68
-21 -2 -6 -7 -38 -11 -71 l-7 -59 48 54 49 53 48 -51 c26 -28 49 -51 51 -51 1
0 -2 30 -8 68 l-12 67 71 10 70 10 -57 33 c-32 18 -58 36 -58 40 0 4 16 29 35
56 19 27 33 51 31 53 -2 2 -31 -7 -65 -21 l-61 -25 -21 70 c-11 38 -22 69 -24
69 -1 0 -8 -20 -14 -44z"/>
<path d="M11840 4011 c0 -36 -31 -105 -65 -147 -20 -23 -32 -45 -28 -47 5 -3
28 -8 53 -12 135 -22 150 -81 75 -290 -55 -152 -65 -192 -43 -179 22 13 99
109 163 205 82 122 118 201 123 268 4 50 1 61 -22 88 -15 18 -66 55 -114 82
-92 54 -142 65 -142 32z"/>
<path d="M3476 3912 c-8 -35 -19 -38 -70 -16 -18 7 -18 5 3 -25 13 -18 22 -33
20 -35 -2 -1 -15 -10 -29 -19 l-24 -17 33 -6 c30 -6 33 -9 29 -40 l-4 -34 26
25 26 25 27 -27 26 -27 -6 37 c-5 35 -4 37 20 37 35 0 43 16 15 31 -13 6 -25
13 -27 15 -2 1 7 17 20 35 21 30 21 32 3 25 -47 -20 -53 -19 -67 15 l-14 34
-7 -33z"/>
<path d="M7490 3779 c-47 -10 -195 -41 -330 -68 -1036 -211 -1045 -213 -1070
-236 -44 -40 -18 -54 63 -35 23 5 330 66 682 135 352 70 661 131 687 136 43
10 48 13 54 45 3 19 5 36 3 38 -2 1 -42 -6 -89 -15z"/>
<path d="M635 3723 c-60 -8 -273 -53 -299 -63 l-26 -9 25 -47 c14 -26 25 -57
25 -69 0 -18 17 -29 102 -66 135 -58 254 -138 360 -243 133 -131 203 -241 263
-413 l19 -53 23 83 c31 106 72 174 153 251 140 132 351 194 530 155 28 -6 54
-8 58 -5 12 13 -37 62 -110 111 -81 55 -375 224 -473 272 -154 77 -279 103
-473 102 -81 -1 -160 -4 -177 -6z"/>
<path d="M94 3650 c-32 -13 -82 -77 -89 -114 -13 -68 22 -138 86 -171 131 -68
277 88 203 216 -40 67 -128 98 -200 69z"/>
<path d="M10691 3621 c-9 -6 -16 -38 -21 -88 -10 -111 -34 -156 -139 -255 -48
-46 -93 -93 -99 -105 -16 -29 -3 -62 42 -101 49 -43 87 -61 141 -69 61 -8 59
9 -10 72 -85 79 -77 100 77 204 63 42 164 136 200 185 52 72 29 109 -89 146
-73 22 -82 23 -102 11z"/>
<path d="M5540 3379 c-74 -16 -243 -52 -375 -79 -608 -128 -861 -213 -1141
-381 -96 -57 -179 -128 -151 -129 10 0 101 43 201 95 101 52 224 111 272 131
219 90 530 171 1117 289 120 25 222 47 228 50 14 9 11 55 -3 54 -7 0 -74 -14
-148 -30z"/>
<path d="M12487 3260 c-4 -8 -16 -49 -28 -90 -12 -41 -23 -76 -24 -77 -1 -2
-39 13 -85 32 -45 20 -85 33 -87 31 -3 -3 18 -37 46 -77 28 -40 48 -75 46 -80
-3 -4 -40 -27 -83 -50 l-77 -43 50 -7 c28 -4 72 -8 98 -8 47 -1 48 -2 43 -28
-16 -83 -27 -156 -23 -160 3 -2 31 25 63 61 54 62 78 78 86 57 4 -13 109 -123
113 -119 2 2 -3 37 -10 78 -21 116 -28 106 83 116 l97 9 -82 45 c-46 25 -83
49 -83 53 0 5 22 41 50 80 27 39 48 72 46 74 -2 2 -42 -12 -90 -31 l-86 -34
-20 71 c-28 98 -36 116 -43 97z"/>
<path d="M3612 3219 c-57 -28 -82 -69 -131 -209 -66 -188 -150 -290 -315 -384
-97 -55 -233 -100 -383 -127 -95 -18 -171 -23 -393 -26 -283 -5 -354 -1 -865
48 -280 26 -450 23 -513 -10 -23 -12 -52 -36 -62 -54 -61 -99 39 -259 144
-233 29 7 34 20 46 122 6 62 13 82 30 96 67 54 205 -31 245 -151 9 -27 18
-114 24 -214 8 -159 10 -171 40 -232 57 -115 109 -143 400 -214 219 -54 213
-51 252 -134 26 -55 19 -67 -36 -67 -175 -1 -868 -228 -976 -320 -34 -29 -34
-29 -9 -31 53 -3 106 4 425 56 689 112 799 123 1650 165 529 26 717 79 896
251 173 165 161 332 -39 542 -72 75 -81 28 -20 -113 27 -62 32 -88 33 -150 0
-64 -4 -82 -27 -122 -39 -65 -110 -124 -203 -169 -131 -64 -181 -69 -643 -69
-224 0 -499 -5 -612 -10 l-205 -10 -51 58 -52 57 117 7 c275 15 584 100 923
254 67 30 124 51 128 47 3 -4 12 -30 19 -58 43 -176 150 -281 244 -241 20 8
37 22 37 30 0 8 -30 54 -67 103 -61 81 -123 195 -123 225 0 7 33 34 73 60 157
101 217 178 217 279 0 78 -18 122 -115 284 -163 269 -164 335 -8 370 67 15 84
23 120 59 55 56 64 99 32 163 -13 27 -39 58 -58 70 -46 31 -129 31 -189 2z"/>
<path d="M8763 3219 c-6 -8 -13 -46 -15 -85 -7 -105 -34 -152 -150 -265 -64
-62 -98 -103 -98 -117 0 -48 107 -134 181 -145 68 -10 69 7 1 70 -34 32 -62
64 -62 71 0 29 23 52 115 117 112 80 215 178 239 230 16 33 16 38 2 60 -28 43
-190 91 -213 64z"/>
<path d="M1775 3173 c-124 -18 -293 -91 -389 -170 -72 -58 -121 -127 -142
-199 -15 -53 -12 -114 7 -114 4 0 21 26 36 57 50 108 166 203 286 235 41 11
49 10 63 -4 15 -15 11 -25 -45 -131 -58 -108 -72 -147 -53 -147 5 0 62 34 127
76 149 96 195 116 266 118 77 1 89 -11 89 -90 l0 -65 30 16 c16 8 74 51 129
95 143 115 203 190 170 211 -24 15 -127 10 -262 -12 -70 -12 -130 -19 -133
-17 -2 3 0 17 6 32 5 15 10 43 10 61 0 28 -4 36 -22 39 -39 8 -142 13 -173 9z"/>
<path d="M6911 2836 c-7 -8 -16 -50 -20 -93 -11 -107 -36 -151 -147 -257 -74
-71 -94 -95 -94 -117 0 -34 39 -82 94 -114 47 -28 130 -43 140 -27 3 6 -19 32
-49 58 -59 49 -73 79 -56 112 6 11 48 46 93 78 93 64 223 185 244 226 30 58 6
93 -84 122 -81 25 -108 28 -121 12z"/>
<path d="M10335 2699 c-5 -23 -11 -29 -23 -24 -10 4 -26 10 -36 13 -19 5 -19
4 2 -25 l21 -29 -32 -20 -32 -19 38 -3 c38 -3 38 -3 31 -40 l-7 -37 27 24 26
24 26 -24 27 -24 -6 38 -6 37 37 0 37 0 -30 24 c-29 23 -29 23 -11 51 18 27
18 28 0 23 -11 -3 -26 -9 -36 -13 -12 -5 -18 1 -23 24 -4 17 -10 31 -15 31 -5
0 -11 -14 -15 -31z"/>
<path d="M2140 2713 c-39 -8 -143 -58 -163 -77 -22 -22 -22 -42 0 -50 10 -4
123 -21 253 -37 383 -49 564 -36 818 61 46 18 81 34 79 36 -2 2 -64 -5 -138
-16 -207 -31 -240 -28 -430 31 -151 47 -173 51 -279 54 -63 2 -126 1 -140 -2z"/>
<path d="M9100 2673 c-13 -36 -17 -38 -56 -23 -27 10 -27 10 -10 -14 22 -34
20 -43 -11 -60 l-28 -14 38 -7 c37 -7 37 -8 32 -44 l-6 -36 26 30 26 30 25
-30 26 -30 -5 38 c-5 33 -3 37 16 37 39 0 50 15 22 28 -28 13 -32 34 -10 52
24 20 18 30 -11 20 -38 -15 -43 -13 -53 23 l-9 32 -12 -32z"/>
<path d="M11206 2635 c-10 -36 -22 -65 -27 -65 -5 0 -34 11 -65 25 -31 14 -58
25 -61 25 -2 0 15 -28 38 -62 23 -34 38 -63 33 -65 -5 -2 -34 -18 -64 -36
l-55 -32 73 -3 c80 -3 78 0 62 -82 -6 -29 -8 -55 -6 -57 2 -2 25 17 50 44 l47
48 51 -55 c41 -45 49 -50 45 -30 -3 14 -9 48 -13 77 l-6 52 73 3 74 3 -60 34
c-33 19 -62 36 -64 38 -3 2 14 30 38 63 23 33 39 60 37 60 -3 0 -31 -11 -62
-25 -31 -14 -60 -25 -65 -25 -5 0 -16 26 -25 58 -9 31 -19 60 -23 64 -3 4 -15
-22 -25 -57z"/>
<path d="M11975 2672 c-8 -35 -19 -38 -69 -16 -18 7 -18 4 4 -26 14 -19 19
-35 13 -37 -5 -2 -19 -10 -29 -18 -18 -13 -17 -14 15 -21 31 -7 33 -9 27 -42
l-5 -35 27 26 28 27 27 -27 26 -27 -5 36 c-6 33 -5 35 27 42 32 7 33 8 15 21
-10 8 -24 16 -29 18 -6 2 -1 18 13 37 22 30 22 33 4 26 -47 -20 -53 -19 -68
15 l-14 34 -7 -33z"/>
<path d="M9571 2472 c-19 -76 -20 -77 -84 -48 -32 14 -57 22 -57 18 0 -4 16
-29 35 -56 l35 -49 -56 -32 -56 -32 32 -7 c18 -3 48 -6 67 -6 28 0 33 -3 29
-17 -3 -10 -8 -40 -12 -68 l-7 -50 46 50 46 50 46 -50 46 -50 -6 40 c-3 22 -8
52 -11 68 -5 24 -3 27 23 27 15 0 45 3 66 6 l38 7 -53 30 c-29 16 -55 31 -57
33 -2 2 13 25 33 52 20 27 36 52 36 55 0 3 -26 -5 -57 -18 -32 -13 -61 -21
-64 -19 -4 2 -12 26 -19 54 -7 28 -16 52 -20 55 -4 3 -13 -16 -19 -43z"/>
<path d="M5031 2447 c-6 -7 -14 -49 -19 -93 -12 -108 -38 -152 -148 -258 -104
-99 -111 -117 -70 -170 42 -55 191 -118 209 -89 3 5 -21 36 -53 68 -86 85 -84
94 55 191 38 27 103 80 143 119 137 129 136 178 -4 224 -75 24 -97 26 -113 8z"/>
<path d="M7395 2355 c-12 -45 -13 -46 -51 -30 l-35 15 21 -35 21 -34 -33 -18
-33 -18 38 -3 39 -3 -7 -37 -7 -37 30 29 30 28 17 -26 c23 -35 32 -33 27 9 -4
35 -4 35 34 36 34 0 37 2 21 12 -52 34 -51 31 -31 62 18 28 18 28 -1 23 -11
-3 -26 -7 -34 -9 -8 -3 -18 10 -26 31 l-13 35 -7 -30z"/>
<path d="M8174 2322 c-7 -35 -18 -38 -68 -16 -18 7 -18 5 3 -25 13 -18 22 -33
20 -35 -2 -1 -15 -10 -29 -19 l-24 -17 33 -6 c31 -7 33 -9 27 -42 l-5 -35 27
26 28 27 27 -27 26 -27 -5 36 c-6 33 -5 35 27 42 32 7 33 8 15 21 -10 8 -24
16 -29 18 -6 2 -1 18 13 37 22 30 22 33 4 26 -44 -19 -64 -19 -64 0 0 11 -5
26 -10 34 -7 12 -11 8 -16 -18z"/>
<path d="M10544 2195 c-141 -38 -228 -90 -343 -208 -111 -113 -200 -243 -345
-504 -44 -79 -72 -116 -130 -171 -204 -190 -460 -208 -492 -35 -33 176 175
501 395 617 119 62 232 59 239 -7 3 -24 0 -27 -25 -27 -52 -1 -82 -47 -51 -78
36 -36 118 19 118 78 0 88 -135 126 -282 80 -62 -19 -63 -19 -128 0 -130 38
-246 53 -390 47 -155 -6 -221 -21 -336 -78 -197 -96 -323 -285 -312 -468 3
-54 9 -77 31 -110 32 -48 80 -81 120 -81 17 0 30 -6 33 -17 43 -128 114 -217
212 -265 56 -28 76 -32 141 -32 88 -1 161 26 207 76 28 30 28 30 -18 -4 -116
-88 -293 -69 -390 41 -33 38 -72 117 -83 167 -6 30 -4 32 29 38 127 24 274
151 346 299 84 175 56 299 -70 299 -189 0 -402 -280 -388 -513 3 -65 -6 -73
-39 -36 -35 38 -44 65 -44 136 -1 133 47 240 156 347 154 152 357 209 622 174
94 -13 213 -40 213 -49 0 -4 -14 -15 -31 -25 -106 -62 -252 -225 -313 -350
-45 -91 -64 -193 -46 -256 15 -56 79 -121 137 -138 125 -37 300 22 438 149
l44 40 3 -32 c2 -22 10 -34 25 -40 20 -7 28 3 90 113 68 121 144 208 192 221
34 8 26 -17 -40 -135 -82 -148 -89 -208 -22 -208 72 0 219 143 288 280 10 19
19 37 21 39 7 8 54 -42 54 -57 0 -8 -20 -51 -45 -96 -43 -79 -52 -115 -39
-150 10 -26 66 -20 109 13 l40 29 12 -29 c9 -21 19 -29 38 -29 30 0 78 23 119
57 l29 24 18 -27 c24 -37 56 -53 106 -54 54 0 88 13 118 46 33 36 32 78 -5
166 -16 38 -30 81 -30 93 0 44 46 67 94 49 25 -10 19 -29 -15 -41 -25 -10 -30
-16 -27 -40 6 -58 98 -30 98 30 0 85 -164 97 -206 15 -20 -38 -18 -59 11 -130
30 -75 32 -121 5 -148 -27 -27 -89 -27 -117 0 -38 35 -38 56 3 107 60 76 59
73 32 73 -35 0 -77 -45 -84 -92 -5 -30 -16 -45 -47 -68 -37 -27 -77 -40 -77
-24 0 4 32 63 70 133 74 135 84 173 49 191 -11 7 -24 9 -27 5 -4 -3 -41 -67
-82 -143 -58 -105 -86 -144 -119 -169 -23 -18 -47 -31 -52 -28 -5 3 12 44 36
91 25 47 45 95 45 106 0 13 -20 41 -51 70 l-51 47 21 56 c12 31 21 58 21 60 0
12 -21 3 -50 -22 -29 -24 -32 -31 -27 -67 4 -31 -1 -52 -23 -95 -40 -81 -111
-171 -163 -209 -43 -30 -77 -41 -77 -24 0 4 28 57 62 117 70 127 86 195 49
214 -24 13 -75 -4 -128 -45 -18 -14 -33 -23 -33 -20 0 2 38 71 85 152 174 301
297 427 459 470 65 18 167 18 209 0 38 -15 94 -76 103 -111 3 -14 10 -25 14
-25 16 0 31 30 25 49 -10 31 -89 96 -133 109 -51 16 -144 14 -208 -3z m-1445
-403 c74 -82 -60 -363 -220 -461 -53 -33 -122 -61 -151 -61 -19 0 -22 16 -19
80 3 67 23 135 63 220 32 67 57 101 117 161 103 102 158 118 210 61z"/>
<path d="M11725 2191 c-84 -25 -113 -38 -170 -74 -125 -78 -241 -205 -361
-395 -58 -91 -64 -97 -98 -100 -44 -4 -48 -22 -6 -22 l31 0 -41 -72 c-59 -104
-82 -156 -88 -200 -10 -80 60 -102 155 -48 28 16 54 34 58 40 10 16 25 12 19
-5 -9 -22 23 -66 41 -59 8 4 41 52 72 108 71 127 106 172 162 208 82 51 81 40
-9 -123 -38 -70 -70 -136 -70 -147 0 -26 26 -53 44 -46 7 3 40 53 72 112 73
135 181 246 216 225 4 -2 -25 -66 -64 -143 -64 -122 -71 -142 -62 -167 7 -22
17 -29 41 -31 33 -3 58 9 126 61 l37 29 0 -24 c0 -38 27 -68 62 -68 33 0 118
44 118 60 0 6 5 10 11 10 6 0 9 -6 6 -12 -2 -7 -1 -23 4 -35 14 -38 65 -31
132 18 l57 40 11 -24 c26 -57 131 -76 195 -36 64 39 70 89 24 197 -34 80 -37
104 -14 126 23 23 81 21 94 -4 9 -17 8 -20 -8 -20 -25 0 -55 -34 -50 -57 4
-25 54 -29 79 -7 27 24 24 66 -6 94 -20 19 -36 24 -74 23 -61 -1 -98 -24 -112
-72 -9 -31 -7 -46 15 -105 14 -37 26 -84 26 -102 0 -74 -85 -101 -141 -45 -16
16 -29 33 -29 38 0 5 20 35 45 68 41 55 43 60 24 63 -30 5 -68 -35 -81 -86 -8
-33 -21 -51 -51 -73 -36 -26 -77 -38 -77 -23 0 3 38 74 85 158 47 84 85 158
85 164 0 7 -7 12 -16 12 -17 0 -77 -38 -83 -54 -2 -5 -9 5 -17 22 -28 68 -109
47 -202 -53 -31 -33 -70 -86 -85 -118 -19 -38 -44 -70 -78 -97 -44 -35 -89
-52 -89 -34 0 3 27 54 61 114 84 152 94 196 48 220 -25 14 -90 -14 -141 -59
l-37 -32 6 34 c4 28 1 37 -17 50 -28 20 -65 9 -129 -36 -43 -31 -47 -33 -44
-13 5 28 -18 59 -38 51 -9 -3 -38 -48 -65 -98 -77 -145 -214 -268 -264 -237
-20 12 -5 51 71 191 l71 129 54 0 c30 0 54 5 54 10 0 6 -20 10 -45 10 -25 0
-45 2 -45 5 0 12 96 174 151 255 114 168 204 248 327 289 68 23 182 28 229 10
39 -14 77 -53 98 -100 20 -43 30 -48 43 -21 14 25 -1 54 -48 94 -69 60 -186
74 -305 39z m403 -622 c5 -40 -74 -186 -134 -247 -29 -30 -58 -52 -66 -50 -47
16 18 174 113 271 59 61 82 68 87 26z"/>
<path d="M5956 1980 c-176 -28 -290 -78 -395 -176 -56 -52 -79 -83 -111 -147
-75 -154 -74 -271 4 -353 23 -23 55 -45 71 -49 50 -11 55 -14 61 -32 4 -10 17
-42 30 -70 l23 -53 -25 -6 c-33 -8 -128 11 -168 34 -17 10 -46 41 -65 69 -27
41 -38 50 -48 41 -23 -19 -14 -50 26 -89 52 -49 125 -72 221 -71 l75 0 45 -43
c102 -100 255 -129 371 -73 30 15 66 40 80 55 l24 26 -37 -27 c-126 -93 -273
-86 -385 19 l-58 53 48 21 c136 59 254 176 497 491 94 123 100 128 57 50 -110
-202 -124 -400 -29 -400 52 0 166 121 355 375 106 143 120 158 79 85 -16 -30
-69 -125 -116 -210 -87 -156 -103 -209 -74 -238 30 -30 124 -1 190 57 41 36
48 38 48 14 1 -22 28 -57 57 -72 12 -6 45 -11 72 -11 102 0 194 67 290 210 32
48 61 94 63 101 4 12 8 12 22 0 41 -34 40 -48 -9 -142 -35 -69 -45 -99 -43
-127 3 -33 6 -37 33 -40 37 -4 110 42 161 101 19 23 61 82 91 130 l56 88 24
-22 c12 -13 23 -29 23 -36 0 -8 -20 -53 -45 -100 -45 -86 -55 -129 -33 -151
24 -24 66 -13 123 33 50 41 55 43 49 21 -9 -35 11 -66 44 -66 30 0 83 29 125
68 15 14 27 23 27 20 0 -11 -142 -253 -198 -338 -71 -107 -186 -228 -250 -263
-103 -56 -242 -73 -318 -38 -42 19 -86 68 -99 109 -7 25 -23 25 -39 -1 -25
-40 89 -131 179 -142 167 -21 361 68 522 239 102 108 180 224 322 481 138 251
133 240 91 231 -46 -9 -74 -37 -122 -125 -23 -41 -58 -93 -77 -115 -62 -68
-141 -117 -141 -86 0 6 32 66 70 135 39 69 70 136 70 150 0 20 -24 45 -44 45
-3 0 -31 -48 -63 -107 -60 -110 -128 -195 -182 -226 -42 -25 -41 -6 3 70 19
33 38 71 41 86 10 39 -11 81 -56 113 -42 29 -42 31 -13 103 25 61 11 69 -38
21 -27 -28 -30 -35 -24 -71 6 -36 1 -49 -41 -121 -27 -44 -63 -98 -82 -120
-41 -48 -110 -100 -122 -92 -5 3 12 44 37 91 54 103 53 120 -12 180 l-46 41
21 56 c12 31 21 59 21 61 0 15 -30 1 -55 -24 -24 -26 -27 -36 -22 -70 10 -81
-121 -263 -227 -316 -99 -49 -174 -23 -163 57 3 22 7 42 10 44 2 3 33 12 68
21 155 39 248 129 191 186 -48 47 -189 10 -261 -68 -41 -44 -81 -113 -81 -138
0 -21 -75 -86 -123 -107 -41 -19 -57 -18 -57 2 0 6 70 138 156 292 197 356
247 411 324 360 l25 -17 -23 24 c-18 19 -32 24 -71 23 -103 -4 -157 -50 -341
-294 -256 -339 -352 -442 -382 -412 -40 40 137 461 249 591 33 40 34 40 62 23
24 -14 32 -14 45 -3 9 7 16 21 16 31 0 31 -26 43 -80 37 -32 -4 -85 1 -147 14
-113 22 -358 33 -447 19z m398 -30 c26 -5 66 -15 87 -20 l40 -11 -45 -42 c-24
-23 -111 -130 -192 -237 -246 -324 -356 -441 -469 -497 -76 -38 -83 -38 -99 2
-8 19 -18 51 -21 69 -7 33 -7 34 44 46 60 14 151 67 204 118 53 51 120 155
147 227 24 66 30 158 11 193 -32 61 -121 73 -208 28 -163 -82 -284 -281 -285
-468 0 -43 -5 -78 -10 -78 -5 0 -20 12 -33 26 -78 84 -49 274 66 426 132 176
297 243 574 233 77 -3 162 -9 189 -15z m-327 -142 c25 -20 36 -82 24 -138 -17
-81 -86 -203 -151 -269 -60 -62 -157 -117 -223 -128 l-37 -6 0 49 c0 27 7 77
15 110 56 240 273 462 372 382z m1003 -218 c0 -50 -67 -127 -134 -155 -21 -9
-41 -14 -43 -11 -9 9 54 100 99 145 46 45 78 54 78 21z"/>
<path d="M7965 1830 c-7 -32 -10 -32 -65 -12 -12 5 -11 0 4 -23 l19 -29 -28
-22 -28 -22 34 -4 c32 -3 34 -5 31 -38 l-4 -35 26 24 26 24 26 -24 27 -24 -7
37 c-7 37 -7 37 31 40 l38 3 -33 18 -33 18 22 31 c21 29 22 31 3 26 -10 -3
-27 -9 -37 -13 -13 -6 -18 -1 -23 24 -8 39 -21 40 -29 1z"/>
<path d="M10670 1750 c-11 -11 -20 -24 -20 -29 0 -14 29 -41 43 -41 24 0 57
32 57 54 0 39 -48 48 -80 16z"/>
</g>
</svg>
